<svg class="MuiSvgIcon-root MuiSvgIcon-fontSizeInherit muirtl-1cw4hi4"  xmlns="http://www.w3.org/2000/svg" focusable="false" aria-hidden="true" viewBox="0 0 24 24"><g><path d="M 19.921875 0 L 2.847656 0 L 2.847656 4.175781 L 19.921875 4.175781 Z M 19.921875 0 "></path><path d="M 11.382812 8.347656 C 7.15625 8.347656 0 9.117188 0 12 C 0 14.882812 7.15625 15.652344 11.382812 15.652344 C 15.613281 15.652344 22.765625 14.882812 22.765625 12 C 22.765625 9.117188 15.613281 8.347656 11.382812 8.347656 Z M 11.382812 13.566406 C 6.144531 13.566406 1.898438 12.632812 1.898438 11.476562 C 1.898438 10.324219 6.144531 9.390625 11.382812 9.390625 C 16.621094 9.390625 20.871094 10.324219 20.871094 11.476562 C 20.871094 12.632812 16.621094 13.566406 11.382812 13.566406 Z M 11.382812 13.566406 "></path><path d="M 11.382812 11.476562 C 12.074219 11.476562 12.707031 11.441406 13.28125 11.375 L 13.28125 0 L 9.484375 0 L 9.484375 11.375 C 10.058594 11.441406 10.691406 11.476562 11.382812 11.476562 Z M 11.382812 11.476562 "></path><path d="M 12.472656 13.628906 C 12.402344 13.632812 12.332031 13.632812 12.261719 13.636719 C 11.972656 13.652344 11.679688 13.660156 11.382812 13.660156 C 11.085938 13.660156 10.792969 13.652344 10.507812 13.636719 C 10.433594 13.636719 10.363281 13.632812 10.292969 13.628906 C 10.019531 13.613281 9.746094 13.59375 9.484375 13.566406 L 9.484375 24 L 13.28125 24 L 13.28125 13.566406 C 13.019531 13.59375 12.746094 13.613281 12.472656 13.628906 Z M 12.472656 13.628906 "></path></g></svg>